<svg xmlns="http://www.w3.org/2000/svg" viewBox="0 0 564 638" fill="none">
  <defs>
    <linearGradient id="brand" x1="72" y1="42" x2="492" y2="600" gradientUnits="userSpaceOnUse">
      <stop stop-color="#00D8FF"/>
      <stop offset="0.48" stop-color="#00B8F5"/>
      <stop offset="1" stop-color="#1477FF"/>
    </linearGradient>
  </defs>
  <path
    d="M365 575L282 623L22 473V170L282 20L542 170V473L424 541"
    stroke="url(#brand)"
    stroke-width="38"
    stroke-linecap="round"
    stroke-linejoin="round"
  />
  <path
    d="M268 97H296V137H336V165H296V205H268V165H228V137H268V97Z"
    fill="url(#brand)"
  />
  <path
    d="M99.156 0H49.703C42.734 0 39.25-3.484 39.25-10.453V-383.109C39.25-389.734 40.523-394.531 43.078-397.5C45.629-400.477 48.898-401.539 52.89-400.687C56.879-399.844 60.832-396.789 64.75-391.531L228.14-174.859L392.031-391.531C395.937-396.789 399.843-399.844 403.75-400.687C407.664-401.539 410.937-400.477 413.562-397.5C416.195-394.531 417.515-389.734 417.515-383.109V-10.453C417.515-3.484 414.035 0 407.078 0H357.625C350.656 0 347.171-3.484 347.171-10.453V-218.703L235.531-73.671C233.32-70.609 230.898-69.078 228.265-69.078C225.628-69.078 223.117-70.609 220.734-73.671L109.609-218.187V-10.453C109.609-3.484 106.125 0 99.156 0Z"
    transform="translate(144.9 473.5) scale(.6)"
    fill="url(#brand)"
  />
</svg>
